<mxfile host="app.diagrams.net" modified="2021-12-11T16:43:40.357Z" agent="5.0 (Windows NT 10.0; Win64; x64) AppleWebKit/537.36 (KHTML, like Gecko) Chrome/93.0.4577.82 Safari/537.36" etag="cROXmYdZ6T2V41bBof-_" version="15.9.4" type="github">
  <diagram id="iV0uPE3SP0c-OrI59Ewx" name="第 1 页">
    <mxGraphModel dx="1422" dy="754" grid="1" gridSize="10" guides="1" tooltips="1" connect="1" arrows="1" fold="1" page="1" pageScale="1" pageWidth="827" pageHeight="1169" math="0" shadow="0">
      <root>
        <mxCell id="0" />
        <mxCell id="1" parent="0" />
        <mxCell id="cDLEh7rRBVdjAhO6R4Rp-1" value="&lt;font style=&quot;font-size: 16px&quot; face=&quot;Comic Sans MS&quot;&gt;2&lt;/font&gt;" style="rounded=0;whiteSpace=wrap;html=1;fillColor=#f5f5f5;strokeColor=#666666;sketch=1;gradientColor=#b3b3b3;" vertex="1" parent="1">
          <mxGeometry x="240" y="160" width="40" height="40" as="geometry" />
        </mxCell>
        <mxCell id="cDLEh7rRBVdjAhO6R4Rp-2" value="&lt;span style=&quot;font-family: &amp;#34;comic sans ms&amp;#34; ; font-size: 16px&quot;&gt;3&lt;/span&gt;" style="rounded=0;whiteSpace=wrap;html=1;fillColor=#f5f5f5;strokeColor=#666666;sketch=1;gradientColor=#b3b3b3;" vertex="1" parent="1">
          <mxGeometry x="280" y="160" width="40" height="40" as="geometry" />
        </mxCell>
        <mxCell id="cDLEh7rRBVdjAhO6R4Rp-3" value="&lt;font face=&quot;comic sans ms&quot;&gt;&lt;span style=&quot;font-size: 16px&quot;&gt;-2&lt;/span&gt;&lt;/font&gt;" style="rounded=0;whiteSpace=wrap;html=1;fillColor=#f5f5f5;strokeColor=#666666;sketch=1;gradientColor=#b3b3b3;" vertex="1" parent="1">
          <mxGeometry x="320" y="160" width="40" height="40" as="geometry" />
        </mxCell>
        <mxCell id="cDLEh7rRBVdjAhO6R4Rp-4" value="&lt;span style=&quot;font-family: &amp;#34;comic sans ms&amp;#34; ; font-size: 16px&quot;&gt;4&lt;/span&gt;" style="rounded=0;whiteSpace=wrap;html=1;fillColor=#f5f5f5;strokeColor=#666666;sketch=1;gradientColor=#b3b3b3;" vertex="1" parent="1">
          <mxGeometry x="360" y="160" width="40" height="40" as="geometry" />
        </mxCell>
        <mxCell id="cDLEh7rRBVdjAhO6R4Rp-9" value="&lt;font style=&quot;font-size: 16px&quot; face=&quot;Comic Sans MS&quot;&gt;2&lt;/font&gt;" style="rounded=0;whiteSpace=wrap;html=1;fillColor=#dae8fc;gradientColor=#7ea6e0;strokeColor=#6c8ebf;sketch=1;" vertex="1" parent="1">
          <mxGeometry x="240" y="320" width="40" height="40" as="geometry" />
        </mxCell>
        <mxCell id="cDLEh7rRBVdjAhO6R4Rp-10" value="&lt;span style=&quot;font-family: &amp;#34;comic sans ms&amp;#34; ; font-size: 16px&quot;&gt;0&lt;/span&gt;" style="rounded=0;whiteSpace=wrap;html=1;fillColor=#dae8fc;gradientColor=#7ea6e0;strokeColor=#6c8ebf;sketch=1;" vertex="1" parent="1">
          <mxGeometry x="280" y="320" width="40" height="40" as="geometry" />
        </mxCell>
        <mxCell id="cDLEh7rRBVdjAhO6R4Rp-11" value="&lt;font face=&quot;comic sans ms&quot;&gt;&lt;span style=&quot;font-size: 16px&quot;&gt;0&lt;/span&gt;&lt;/font&gt;" style="rounded=0;whiteSpace=wrap;html=1;fillColor=#dae8fc;gradientColor=#7ea6e0;strokeColor=#6c8ebf;sketch=1;" vertex="1" parent="1">
          <mxGeometry x="320" y="320" width="40" height="40" as="geometry" />
        </mxCell>
        <mxCell id="cDLEh7rRBVdjAhO6R4Rp-12" value="&lt;span style=&quot;font-family: &amp;#34;comic sans ms&amp;#34; ; font-size: 16px&quot;&gt;0&lt;/span&gt;" style="rounded=0;whiteSpace=wrap;html=1;fillColor=#dae8fc;gradientColor=#7ea6e0;strokeColor=#6c8ebf;sketch=1;" vertex="1" parent="1">
          <mxGeometry x="360" y="320" width="40" height="40" as="geometry" />
        </mxCell>
        <mxCell id="cDLEh7rRBVdjAhO6R4Rp-13" value="&lt;font style=&quot;font-size: 14px&quot;&gt;原始数组nums&lt;/font&gt;" style="text;html=1;strokeColor=none;fillColor=none;align=center;verticalAlign=middle;whiteSpace=wrap;rounded=0;fontFamily=Comic Sans MS;fontSize=16;" vertex="1" parent="1">
          <mxGeometry x="240" y="120" width="160" height="40" as="geometry" />
        </mxCell>
        <mxCell id="cDLEh7rRBVdjAhO6R4Rp-14" value="&lt;font style=&quot;font-size: 14px&quot;&gt;dpMax数组初始状态&lt;/font&gt;" style="text;html=1;strokeColor=none;fillColor=none;align=center;verticalAlign=middle;whiteSpace=wrap;rounded=0;fontFamily=Comic Sans MS;fontSize=16;" vertex="1" parent="1">
          <mxGeometry x="240" y="280" width="160" height="40" as="geometry" />
        </mxCell>
        <mxCell id="cDLEh7rRBVdjAhO6R4Rp-15" value="&lt;font style=&quot;font-size: 16px&quot; face=&quot;Comic Sans MS&quot;&gt;2&lt;/font&gt;" style="rounded=0;whiteSpace=wrap;html=1;fillColor=#f8cecc;gradientColor=#ea6b66;strokeColor=#b85450;sketch=1;" vertex="1" parent="1">
          <mxGeometry x="440" y="320" width="40" height="40" as="geometry" />
        </mxCell>
        <mxCell id="cDLEh7rRBVdjAhO6R4Rp-16" value="&lt;span style=&quot;font-family: &amp;#34;comic sans ms&amp;#34; ; font-size: 16px&quot;&gt;0&lt;/span&gt;" style="rounded=0;whiteSpace=wrap;html=1;fillColor=#f8cecc;gradientColor=#ea6b66;strokeColor=#b85450;sketch=1;" vertex="1" parent="1">
          <mxGeometry x="480" y="320" width="40" height="40" as="geometry" />
        </mxCell>
        <mxCell id="cDLEh7rRBVdjAhO6R4Rp-17" value="&lt;font face=&quot;comic sans ms&quot;&gt;&lt;span style=&quot;font-size: 16px&quot;&gt;0&lt;/span&gt;&lt;/font&gt;" style="rounded=0;whiteSpace=wrap;html=1;fillColor=#f8cecc;gradientColor=#ea6b66;strokeColor=#b85450;sketch=1;" vertex="1" parent="1">
          <mxGeometry x="520" y="320" width="40" height="40" as="geometry" />
        </mxCell>
        <mxCell id="cDLEh7rRBVdjAhO6R4Rp-18" value="&lt;span style=&quot;font-family: &amp;#34;comic sans ms&amp;#34; ; font-size: 16px&quot;&gt;0&lt;/span&gt;" style="rounded=0;whiteSpace=wrap;html=1;fillColor=#f8cecc;gradientColor=#ea6b66;strokeColor=#b85450;sketch=1;" vertex="1" parent="1">
          <mxGeometry x="560" y="320" width="40" height="40" as="geometry" />
        </mxCell>
        <mxCell id="cDLEh7rRBVdjAhO6R4Rp-19" value="&lt;font style=&quot;font-size: 14px&quot;&gt;dpMin数组初始状态&lt;/font&gt;" style="text;html=1;strokeColor=none;fillColor=none;align=center;verticalAlign=middle;whiteSpace=wrap;rounded=0;fontFamily=Comic Sans MS;fontSize=16;" vertex="1" parent="1">
          <mxGeometry x="440" y="280" width="160" height="40" as="geometry" />
        </mxCell>
        <mxCell id="cDLEh7rRBVdjAhO6R4Rp-20" value="&lt;font style=&quot;font-size: 16px&quot; face=&quot;Comic Sans MS&quot;&gt;2&lt;/font&gt;" style="rounded=0;whiteSpace=wrap;html=1;fillColor=#dae8fc;gradientColor=#7ea6e0;strokeColor=#6c8ebf;sketch=1;" vertex="1" parent="1">
          <mxGeometry x="240" y="480" width="40" height="40" as="geometry" />
        </mxCell>
        <mxCell id="cDLEh7rRBVdjAhO6R4Rp-21" value="&lt;span style=&quot;font-family: &amp;#34;comic sans ms&amp;#34; ; font-size: 16px&quot;&gt;6&lt;/span&gt;" style="rounded=0;whiteSpace=wrap;html=1;fillColor=#d5e8d4;gradientColor=#97d077;strokeColor=#82b366;sketch=1;" vertex="1" parent="1">
          <mxGeometry x="280" y="480" width="40" height="40" as="geometry" />
        </mxCell>
        <mxCell id="cDLEh7rRBVdjAhO6R4Rp-22" value="&lt;font face=&quot;comic sans ms&quot;&gt;&lt;span style=&quot;font-size: 16px&quot;&gt;0&lt;/span&gt;&lt;/font&gt;" style="rounded=0;whiteSpace=wrap;html=1;fillColor=#dae8fc;gradientColor=#7ea6e0;strokeColor=#6c8ebf;sketch=1;" vertex="1" parent="1">
          <mxGeometry x="320" y="480" width="40" height="40" as="geometry" />
        </mxCell>
        <mxCell id="cDLEh7rRBVdjAhO6R4Rp-23" value="&lt;span style=&quot;font-family: &amp;#34;comic sans ms&amp;#34; ; font-size: 16px&quot;&gt;0&lt;/span&gt;" style="rounded=0;whiteSpace=wrap;html=1;fillColor=#dae8fc;gradientColor=#7ea6e0;strokeColor=#6c8ebf;sketch=1;" vertex="1" parent="1">
          <mxGeometry x="360" y="480" width="40" height="40" as="geometry" />
        </mxCell>
        <mxCell id="cDLEh7rRBVdjAhO6R4Rp-24" value="&lt;font style=&quot;font-size: 16px&quot; face=&quot;Comic Sans MS&quot;&gt;2&lt;/font&gt;" style="rounded=0;whiteSpace=wrap;html=1;fillColor=#f8cecc;gradientColor=#ea6b66;strokeColor=#b85450;sketch=1;" vertex="1" parent="1">
          <mxGeometry x="440" y="480" width="40" height="40" as="geometry" />
        </mxCell>
        <mxCell id="cDLEh7rRBVdjAhO6R4Rp-25" value="&lt;span style=&quot;font-family: &amp;#34;comic sans ms&amp;#34; ; font-size: 16px&quot;&gt;3&lt;/span&gt;" style="rounded=0;whiteSpace=wrap;html=1;fillColor=#d5e8d4;gradientColor=#97d077;strokeColor=#82b366;sketch=1;" vertex="1" parent="1">
          <mxGeometry x="480" y="480" width="40" height="40" as="geometry" />
        </mxCell>
        <mxCell id="cDLEh7rRBVdjAhO6R4Rp-26" value="&lt;font face=&quot;comic sans ms&quot;&gt;&lt;span style=&quot;font-size: 16px&quot;&gt;0&lt;/span&gt;&lt;/font&gt;" style="rounded=0;whiteSpace=wrap;html=1;fillColor=#f8cecc;gradientColor=#ea6b66;strokeColor=#b85450;sketch=1;" vertex="1" parent="1">
          <mxGeometry x="520" y="480" width="40" height="40" as="geometry" />
        </mxCell>
        <mxCell id="cDLEh7rRBVdjAhO6R4Rp-27" value="&lt;span style=&quot;font-family: &amp;#34;comic sans ms&amp;#34; ; font-size: 16px&quot;&gt;0&lt;/span&gt;" style="rounded=0;whiteSpace=wrap;html=1;fillColor=#f8cecc;gradientColor=#ea6b66;strokeColor=#b85450;sketch=1;" vertex="1" parent="1">
          <mxGeometry x="560" y="480" width="40" height="40" as="geometry" />
        </mxCell>
        <mxCell id="cDLEh7rRBVdjAhO6R4Rp-28" value="&lt;font style=&quot;font-size: 16px&quot; face=&quot;Comic Sans MS&quot;&gt;2&lt;/font&gt;" style="rounded=0;whiteSpace=wrap;html=1;fillColor=#dae8fc;gradientColor=#7ea6e0;strokeColor=#6c8ebf;sketch=1;" vertex="1" parent="1">
          <mxGeometry x="240" y="680" width="40" height="40" as="geometry" />
        </mxCell>
        <mxCell id="cDLEh7rRBVdjAhO6R4Rp-29" value="&lt;span style=&quot;font-family: &amp;#34;comic sans ms&amp;#34; ; font-size: 16px&quot;&gt;6&lt;/span&gt;" style="rounded=0;whiteSpace=wrap;html=1;fillColor=#dae8fc;gradientColor=#7ea6e0;strokeColor=#6c8ebf;sketch=1;" vertex="1" parent="1">
          <mxGeometry x="280" y="680" width="40" height="40" as="geometry" />
        </mxCell>
        <mxCell id="cDLEh7rRBVdjAhO6R4Rp-30" value="&lt;font face=&quot;comic sans ms&quot;&gt;&lt;span style=&quot;font-size: 16px&quot;&gt;-2&lt;/span&gt;&lt;/font&gt;" style="rounded=0;whiteSpace=wrap;html=1;fillColor=#d5e8d4;gradientColor=#97d077;strokeColor=#82b366;sketch=1;" vertex="1" parent="1">
          <mxGeometry x="320" y="680" width="40" height="40" as="geometry" />
        </mxCell>
        <mxCell id="cDLEh7rRBVdjAhO6R4Rp-31" value="&lt;span style=&quot;font-family: &amp;#34;comic sans ms&amp;#34; ; font-size: 16px&quot;&gt;0&lt;/span&gt;" style="rounded=0;whiteSpace=wrap;html=1;fillColor=#dae8fc;gradientColor=#7ea6e0;strokeColor=#6c8ebf;sketch=1;" vertex="1" parent="1">
          <mxGeometry x="360" y="680" width="40" height="40" as="geometry" />
        </mxCell>
        <mxCell id="cDLEh7rRBVdjAhO6R4Rp-32" value="&lt;font style=&quot;font-size: 16px&quot; face=&quot;Comic Sans MS&quot;&gt;2&lt;/font&gt;" style="rounded=0;whiteSpace=wrap;html=1;fillColor=#f8cecc;gradientColor=#ea6b66;strokeColor=#b85450;sketch=1;" vertex="1" parent="1">
          <mxGeometry x="440" y="680" width="40" height="40" as="geometry" />
        </mxCell>
        <mxCell id="cDLEh7rRBVdjAhO6R4Rp-33" value="&lt;span style=&quot;font-family: &amp;#34;comic sans ms&amp;#34; ; font-size: 16px&quot;&gt;3&lt;/span&gt;" style="rounded=0;whiteSpace=wrap;html=1;fillColor=#f8cecc;gradientColor=#ea6b66;strokeColor=#b85450;sketch=1;" vertex="1" parent="1">
          <mxGeometry x="480" y="680" width="40" height="40" as="geometry" />
        </mxCell>
        <mxCell id="cDLEh7rRBVdjAhO6R4Rp-34" value="&lt;font face=&quot;comic sans ms&quot;&gt;&lt;span style=&quot;font-size: 16px&quot;&gt;-12&lt;/span&gt;&lt;/font&gt;" style="rounded=0;whiteSpace=wrap;html=1;fillColor=#d5e8d4;gradientColor=#97d077;strokeColor=#82b366;sketch=1;" vertex="1" parent="1">
          <mxGeometry x="520" y="680" width="40" height="40" as="geometry" />
        </mxCell>
        <mxCell id="cDLEh7rRBVdjAhO6R4Rp-35" value="&lt;span style=&quot;font-family: &amp;#34;comic sans ms&amp;#34; ; font-size: 16px&quot;&gt;0&lt;/span&gt;" style="rounded=0;whiteSpace=wrap;html=1;fillColor=#f8cecc;gradientColor=#ea6b66;strokeColor=#b85450;sketch=1;" vertex="1" parent="1">
          <mxGeometry x="560" y="680" width="40" height="40" as="geometry" />
        </mxCell>
        <mxCell id="cDLEh7rRBVdjAhO6R4Rp-36" value="&lt;font style=&quot;font-size: 12px&quot; color=&quot;#3399ff&quot;&gt;dpMax[1] = max(dpMax[0]*nums[1], dmMin[0]*nums[1], nums1) = 6&lt;/font&gt;" style="text;html=1;strokeColor=none;fillColor=none;align=center;verticalAlign=middle;whiteSpace=wrap;rounded=0;fontFamily=Comic Sans MS;fontSize=16;" vertex="1" parent="1">
          <mxGeometry x="220" y="400" width="401" height="40" as="geometry" />
        </mxCell>
        <mxCell id="cDLEh7rRBVdjAhO6R4Rp-37" value="&lt;font style=&quot;font-size: 16px&quot; face=&quot;Comic Sans MS&quot;&gt;2&lt;/font&gt;" style="rounded=0;whiteSpace=wrap;html=1;fillColor=#dae8fc;gradientColor=#7ea6e0;strokeColor=#6c8ebf;sketch=1;" vertex="1" parent="1">
          <mxGeometry x="240" y="840" width="40" height="40" as="geometry" />
        </mxCell>
        <mxCell id="cDLEh7rRBVdjAhO6R4Rp-38" value="&lt;span style=&quot;font-family: &amp;#34;comic sans ms&amp;#34; ; font-size: 16px&quot;&gt;6&lt;/span&gt;" style="rounded=0;whiteSpace=wrap;html=1;fillColor=#dae8fc;gradientColor=#7ea6e0;strokeColor=#6c8ebf;sketch=1;" vertex="1" parent="1">
          <mxGeometry x="280" y="840" width="40" height="40" as="geometry" />
        </mxCell>
        <mxCell id="cDLEh7rRBVdjAhO6R4Rp-39" value="&lt;font face=&quot;comic sans ms&quot;&gt;&lt;span style=&quot;font-size: 16px&quot;&gt;-2&lt;/span&gt;&lt;/font&gt;" style="rounded=0;whiteSpace=wrap;html=1;fillColor=#dae8fc;gradientColor=#7ea6e0;strokeColor=#6c8ebf;sketch=1;" vertex="1" parent="1">
          <mxGeometry x="320" y="840" width="40" height="40" as="geometry" />
        </mxCell>
        <mxCell id="cDLEh7rRBVdjAhO6R4Rp-40" value="&lt;span style=&quot;font-family: &amp;#34;comic sans ms&amp;#34; ; font-size: 16px&quot;&gt;48&lt;/span&gt;" style="rounded=0;whiteSpace=wrap;html=1;fillColor=#d5e8d4;gradientColor=#97d077;strokeColor=#82b366;sketch=1;" vertex="1" parent="1">
          <mxGeometry x="360" y="840" width="40" height="40" as="geometry" />
        </mxCell>
        <mxCell id="cDLEh7rRBVdjAhO6R4Rp-41" value="&lt;font style=&quot;font-size: 16px&quot; face=&quot;Comic Sans MS&quot;&gt;2&lt;/font&gt;" style="rounded=0;whiteSpace=wrap;html=1;fillColor=#f8cecc;gradientColor=#ea6b66;strokeColor=#b85450;sketch=1;" vertex="1" parent="1">
          <mxGeometry x="440" y="840" width="40" height="40" as="geometry" />
        </mxCell>
        <mxCell id="cDLEh7rRBVdjAhO6R4Rp-42" value="&lt;span style=&quot;font-family: &amp;#34;comic sans ms&amp;#34; ; font-size: 16px&quot;&gt;3&lt;/span&gt;" style="rounded=0;whiteSpace=wrap;html=1;fillColor=#f8cecc;gradientColor=#ea6b66;strokeColor=#b85450;sketch=1;" vertex="1" parent="1">
          <mxGeometry x="480" y="840" width="40" height="40" as="geometry" />
        </mxCell>
        <mxCell id="cDLEh7rRBVdjAhO6R4Rp-43" value="&lt;font face=&quot;comic sans ms&quot;&gt;&lt;span style=&quot;font-size: 16px&quot;&gt;-12&lt;/span&gt;&lt;/font&gt;" style="rounded=0;whiteSpace=wrap;html=1;fillColor=#f8cecc;gradientColor=#ea6b66;strokeColor=#b85450;sketch=1;" vertex="1" parent="1">
          <mxGeometry x="520" y="840" width="40" height="40" as="geometry" />
        </mxCell>
        <mxCell id="cDLEh7rRBVdjAhO6R4Rp-44" value="&lt;span style=&quot;font-family: &amp;#34;comic sans ms&amp;#34; ; font-size: 16px&quot;&gt;-48&lt;/span&gt;" style="rounded=0;whiteSpace=wrap;html=1;fillColor=#d5e8d4;gradientColor=#97d077;strokeColor=#82b366;sketch=1;" vertex="1" parent="1">
          <mxGeometry x="560" y="840" width="40" height="40" as="geometry" />
        </mxCell>
        <mxCell id="cDLEh7rRBVdjAhO6R4Rp-45" value="&lt;font style=&quot;font-size: 12px&quot; color=&quot;#ff3333&quot;&gt;dpMin[1] = min(dpMax[0]*nums[1], dmMin[0]*nums[1], nums1) = 3&lt;/font&gt;" style="text;html=1;strokeColor=none;fillColor=none;align=center;verticalAlign=middle;whiteSpace=wrap;rounded=0;fontFamily=Comic Sans MS;fontSize=16;" vertex="1" parent="1">
          <mxGeometry x="220" y="440" width="401" height="40" as="geometry" />
        </mxCell>
        <mxCell id="cDLEh7rRBVdjAhO6R4Rp-46" value="&lt;font style=&quot;font-size: 12px&quot; color=&quot;#3399ff&quot;&gt;dpMax[2] = max(dpMax[1]*nums[2], dmMin[1]*nums[2], nums[2]) = -2&lt;/font&gt;" style="text;html=1;strokeColor=none;fillColor=none;align=center;verticalAlign=middle;whiteSpace=wrap;rounded=0;fontFamily=Comic Sans MS;fontSize=16;" vertex="1" parent="1">
          <mxGeometry x="220" y="600" width="401" height="40" as="geometry" />
        </mxCell>
        <mxCell id="cDLEh7rRBVdjAhO6R4Rp-47" value="&lt;font style=&quot;font-size: 12px&quot; color=&quot;#ff3333&quot;&gt;dpMin[2] = min(dpMax[1]*nums[2], dmMin[1]*nums[2], nums[2]) = -12&lt;/font&gt;" style="text;html=1;strokeColor=none;fillColor=none;align=center;verticalAlign=middle;whiteSpace=wrap;rounded=0;fontFamily=Comic Sans MS;fontSize=16;" vertex="1" parent="1">
          <mxGeometry x="220" y="640" width="401" height="40" as="geometry" />
        </mxCell>
        <mxCell id="cDLEh7rRBVdjAhO6R4Rp-48" value="&lt;font style=&quot;font-size: 12px&quot; color=&quot;#3399ff&quot;&gt;dpMax[3] = max(dpMax[2]*nums[3], dmMin[2]*nums[3], nums[3]) = 48&lt;/font&gt;" style="text;html=1;strokeColor=none;fillColor=none;align=center;verticalAlign=middle;whiteSpace=wrap;rounded=0;fontFamily=Comic Sans MS;fontSize=16;" vertex="1" parent="1">
          <mxGeometry x="220" y="760" width="401" height="40" as="geometry" />
        </mxCell>
        <mxCell id="cDLEh7rRBVdjAhO6R4Rp-49" value="&lt;font style=&quot;font-size: 12px&quot; color=&quot;#ff3333&quot;&gt;dpMin[3] = min(dpMax[2]*nums[3], dmMin[2]*nums[3], nums[3]) = -48&lt;/font&gt;" style="text;html=1;strokeColor=none;fillColor=none;align=center;verticalAlign=middle;whiteSpace=wrap;rounded=0;fontFamily=Comic Sans MS;fontSize=16;" vertex="1" parent="1">
          <mxGeometry x="220" y="800" width="401" height="40" as="geometry" />
        </mxCell>
      </root>
    </mxGraphModel>
  </diagram>
</mxfile>
